<?xml version="1.0" encoding="UTF-8" standalone="no"?>
<!-- Created with Inkscape (http://www.inkscape.org/) -->
<svg
   xmlns:dc="http://purl.org/dc/elements/1.1/"
   xmlns:cc="http://creativecommons.org/ns#"
   xmlns:rdf="http://www.w3.org/1999/02/22-rdf-syntax-ns#"
   xmlns:svg="http://www.w3.org/2000/svg"
   xmlns="http://www.w3.org/2000/svg"
   xmlns:sodipodi="http://sodipodi.sourceforge.net/DTD/sodipodi-0.dtd"
   xmlns:inkscape="http://www.inkscape.org/namespaces/inkscape"
   width="400"
   height="400"
   id="svg2"
   sodipodi:version="0.32"
   inkscape:version="0.46"
   version="1.0"
   sodipodi:docname="default_tile.svg"
   inkscape:output_extension="org.inkscape.output.svg.inkscape"
   inkscape:export-filename="/home/daniel/subversion/lemmingtowers/images/default_tile.png"
   inkscape:export-xdpi="9"
   inkscape:export-ydpi="9">
  <defs
     id="defs4">
    <inkscape:perspective
       sodipodi:type="inkscape:persp3d"
       inkscape:vp_x="0 : 526.18109 : 1"
       inkscape:vp_y="0 : 1000 : 0"
       inkscape:vp_z="744.09448 : 526.18109 : 1"
       inkscape:persp3d-origin="372.04724 : 350.78739 : 1"
       id="perspective10" />
  </defs>
  <sodipodi:namedview
     id="base"
     pagecolor="#124500"
     bordercolor="#666666"
     borderopacity="1.0"
     gridtolerance="10000"
     guidetolerance="10"
     objecttolerance="10"
     inkscape:pageopacity="1"
     inkscape:pageshadow="2"
     inkscape:zoom="0.98994949"
     inkscape:cx="47.932321"
     inkscape:cy="189.41038"
     inkscape:document-units="px"
     inkscape:current-layer="layer1"
     showgrid="false"
     inkscape:window-width="1280"
     inkscape:window-height="742"
     inkscape:window-x="-4"
     inkscape:window-y="33" />
  <metadata
     id="metadata7">
    <rdf:RDF>
      <cc:Work
         rdf:about="">
        <dc:format>image/svg+xml</dc:format>
        <dc:type
           rdf:resource="http://purl.org/dc/dcmitype/StillImage" />
      </cc:Work>
    </rdf:RDF>
  </metadata>
  <g
     inkscape:label="Layer 1"
     inkscape:groupmode="layer"
     id="layer1">
    <path
       sodipodi:type="arc"
       style="opacity:1;fill:#b3b3b3;fill-opacity:1;stroke:#000000;stroke-width:3.5999999;stroke-linecap:round;stroke-linejoin:round;stroke-miterlimit:4;stroke-dasharray:none;stroke-opacity:1"
       id="path3157"
       sodipodi:cx="60.609154"
       sodipodi:cy="57.558289"
       sodipodi:rx="24.243662"
       sodipodi:ry="24.243662"
       d="M 84.852816,57.558289 A 24.243662,24.243662 0 1 1 36.365492,57.558289 A 24.243662,24.243662 0 1 1 84.852816,57.558289 z"
       transform="translate(1.0101525,12.121831)" />
    <path
       sodipodi:type="arc"
       style="opacity:1;fill:#b3b3b3;fill-opacity:1;stroke:#000000;stroke-width:3.5999999;stroke-linecap:round;stroke-linejoin:round;stroke-miterlimit:4;stroke-dasharray:none;stroke-opacity:1"
       id="path3159"
       sodipodi:cx="60.609154"
       sodipodi:cy="57.558289"
       sodipodi:rx="24.243662"
       sodipodi:ry="24.243662"
       d="M 84.852816,57.558289 A 24.243662,24.243662 0 1 1 36.365492,57.558289 A 24.243662,24.243662 0 1 1 84.852816,57.558289 z"
       transform="matrix(1.1163607,0,0,1.1163607,246.49577,-6.6975218)" />
    <path
       sodipodi:type="arc"
       style="opacity:1;fill:#b3b3b3;fill-opacity:1;stroke:#000000;stroke-width:3.5999999;stroke-linecap:round;stroke-linejoin:round;stroke-miterlimit:4;stroke-dasharray:none;stroke-opacity:1"
       id="path3161"
       sodipodi:cx="60.609154"
       sodipodi:cy="57.558289"
       sodipodi:rx="24.243662"
       sodipodi:ry="24.243662"
       d="M 84.852816,57.558289 A 24.243662,24.243662 0 1 1 36.365492,57.558289 A 24.243662,24.243662 0 1 1 84.852816,57.558289 z"
       transform="matrix(0.6897049,0,0,0.6897049,162.24838,226.96163)" />
    <path
       transform="matrix(0.7284918,0,0,0.7284918,272.02447,286.34843)"
       d="M 84.852816,57.558289 A 24.243662,24.243662 0 1 1 36.365492,57.558289 A 24.243662,24.243662 0 1 1 84.852816,57.558289 z"
       sodipodi:ry="24.243662"
       sodipodi:rx="24.243662"
       sodipodi:cy="57.558289"
       sodipodi:cx="60.609154"
       id="path3165"
       style="opacity:1;fill:#b3b3b3;fill-opacity:1;stroke:#000000;stroke-width:3.5999999;stroke-linecap:round;stroke-linejoin:round;stroke-miterlimit:4;stroke-dasharray:none;stroke-opacity:1"
       sodipodi:type="arc" />
    <path
       sodipodi:type="arc"
       style="opacity:1;fill:#b3b3b3;fill-opacity:1;stroke:#000000;stroke-width:3.5999999;stroke-linecap:round;stroke-linejoin:round;stroke-miterlimit:4;stroke-dasharray:none;stroke-opacity:1"
       id="path3163"
       sodipodi:cx="60.609154"
       sodipodi:cy="57.558289"
       sodipodi:rx="24.243662"
       sodipodi:ry="24.243662"
       d="M 84.852816,57.558289 A 24.243662,24.243662 0 1 1 36.365492,57.558289 A 24.243662,24.243662 0 1 1 84.852816,57.558289 z"
       transform="translate(286.88332,275.77164)" />
    <path
       sodipodi:type="arc"
       style="opacity:1;fill:#b3b3b3;fill-opacity:1;stroke:#000000;stroke-width:3.5999999;stroke-linecap:round;stroke-linejoin:round;stroke-miterlimit:4;stroke-dasharray:none;stroke-opacity:1"
       id="path3169"
       sodipodi:cx="60.609154"
       sodipodi:cy="57.558289"
       sodipodi:rx="24.243662"
       sodipodi:ry="24.243662"
       d="M 84.852816,57.558289 A 24.243662,24.243662 0 1 1 36.365492,57.558289 A 24.243662,24.243662 0 1 1 84.852816,57.558289 z"
       transform="matrix(0.6121311,0,0,0.6121311,54.823133,152.63474)" />
    <path
       sodipodi:type="arc"
       style="opacity:1;fill:#c87137;fill-opacity:1;stroke:#000000;stroke-width:3.5999999;stroke-linecap:round;stroke-linejoin:round;stroke-miterlimit:4;stroke-dasharray:none;stroke-opacity:1"
       id="path3167"
       sodipodi:cx="143.94673"
       sodipodi:cy="147.96693"
       sodipodi:rx="26.769043"
       sodipodi:ry="26.769043"
       d="M 170.71577,147.96693 A 26.769043,26.769043 0 1 1 117.17769,147.96693 A 26.769043,26.769043 0 1 1 170.71577,147.96693 z"
       transform="translate(-21.213203,29.294424)" />
    <path
       sodipodi:type="arc"
       style="opacity:1;fill:#c87137;fill-opacity:1;stroke:#000000;stroke-width:3.5999999;stroke-linecap:round;stroke-linejoin:round;stroke-miterlimit:4;stroke-dasharray:none;stroke-opacity:1"
       id="path3171"
       sodipodi:cx="143.94673"
       sodipodi:cy="147.96693"
       sodipodi:rx="26.769043"
       sodipodi:ry="26.769043"
       d="M 170.71577,147.96693 A 26.769043,26.769043 0 1 1 117.17769,147.96693 A 26.769043,26.769043 0 1 1 170.71577,147.96693 z"
       transform="matrix(0.8232085,0,0,0.8232085,225.96384,-14.751882)" />
    <path
       sodipodi:type="arc"
       style="opacity:1;fill:#c87137;fill-opacity:1;stroke:#000000;stroke-width:3.5999999;stroke-linecap:round;stroke-linejoin:round;stroke-miterlimit:4;stroke-dasharray:none;stroke-opacity:1"
       id="path3173"
       sodipodi:cx="143.94673"
       sodipodi:cy="147.96693"
       sodipodi:rx="26.769043"
       sodipodi:ry="26.769043"
       d="M 170.71577,147.96693 A 26.769043,26.769043 0 1 1 117.17769,147.96693 A 26.769043,26.769043 0 1 1 170.71577,147.96693 z"
       transform="matrix(0.5757005,0,0,0.5757005,-23.271201,271.3788)" />
  </g>
</svg>
